<svg class="animated" id="freepik_stories-app-monetization" xmlns="http://www.w3.org/2000/svg" viewBox="0 0 500 500" version="1.1" xmlns:xlink="http://www.w3.org/1999/xlink" xmlns:svgjs="http://svgjs.com/svgjs"><style>svg#freepik_stories-app-monetization:not(.animated) .animable {opacity: 0;}svg#freepik_stories-app-monetization.animated #freepik--background-simple--inject-313 {animation: 1s 1 forwards cubic-bezier(.36,-0.01,.5,1.38) lightSpeedLeft;animation-delay: 0s;}svg#freepik_stories-app-monetization.animated #freepik--Shadow--inject-313 {animation: 1s 1 forwards cubic-bezier(.36,-0.01,.5,1.38) fadeIn;animation-delay: 0s;}svg#freepik_stories-app-monetization.animated #freepik--Device--inject-313 {animation: 1s 1 forwards cubic-bezier(.36,-0.01,.5,1.38) zoomOut;animation-delay: 0s;}svg#freepik_stories-app-monetization.animated #freepik--Screen--inject-313 {animation: 1s 1 forwards cubic-bezier(.36,-0.01,.5,1.38) slideUp;animation-delay: 0s;}svg#freepik_stories-app-monetization.animated #freepik--Coins--inject-313 {animation: 1s 1 forwards cubic-bezier(.36,-0.01,.5,1.38) zoomOut;animation-delay: 0s;}svg#freepik_stories-app-monetization.animated #freepik--Character--inject-313 {animation: 1s 1 forwards cubic-bezier(.36,-0.01,.5,1.38) slideUp;animation-delay: 0s;}            @keyframes lightSpeedLeft {              from {                transform: translate3d(-50%, 0, 0) skewX(20deg);                opacity: 0;              }              60% {                transform: skewX(-10deg);                opacity: 1;              }              80% {                transform: skewX(2deg);              }              to {                opacity: 1;                transform: translate3d(0, 0, 0);              }            }                    @keyframes fadeIn {                0% {                    opacity: 0;                }                100% {                    opacity: 1;                }            }                    @keyframes zoomOut {                0% {                    opacity: 0;                    transform: scale(1.5);                }                100% {                    opacity: 1;                    transform: scale(1);                }            }                    @keyframes slideUp {                0% {                    opacity: 0;                    transform: translateY(30px);                }                100% {                    opacity: 1;                    transform: inherit;                }            }        </style><g id="freepik--background-simple--inject-313" class="animable" style="transform-origin: 247.725px 243.368px;"><path d="M102.55,216.64c1.07-34.12-26.25-80.77,14.14-104.65,54-31.88,97.34,27,145,32.9,36.39,4.55,89.63-67,138.57-31.63s-18.39,99.92-17.15,133.41c1.23,33.13,69.55,82.79,24.54,123.61-44.13,40-107-18.54-154.18-25.16-41.88-5.88-134.18,57.49-169.61,10.67C50.29,311.44,101.52,249.59,102.55,216.64Z" style="fill: rgb(64, 123, 255); transform-origin: 247.725px 243.368px;" id="elahxos1w0h4o" class="animable"></path><g id="elebvany9m16t"><path d="M102.55,216.64c1.07-34.12-26.25-80.77,14.14-104.65,54-31.88,97.34,27,145,32.9,36.39,4.55,89.63-67,138.57-31.63s-18.39,99.92-17.15,133.41c1.23,33.13,69.55,82.79,24.54,123.61-44.13,40-107-18.54-154.18-25.16-41.88-5.88-134.18,57.49-169.61,10.67C50.29,311.44,101.52,249.59,102.55,216.64Z" style="fill: rgb(255, 255, 255); opacity: 0.9; transform-origin: 247.725px 243.368px;" class="animable"></path></g></g><g id="freepik--Shadow--inject-313" class="animable" style="transform-origin: 245.18px 412.39px;"><ellipse id="freepik--path--inject-313" cx="245.18" cy="412.39" rx="193.89" ry="11.32" style="fill: rgb(245, 245, 245); transform-origin: 245.18px 412.39px;" class="animable"></ellipse></g><g id="freepik--Device--inject-313" class="animable" style="transform-origin: 301.217px 285.765px;"><path d="M245.79,165.76h20.82l21,240H266.79a19.46,19.46,0,0,1-19-17.47L229.84,183.23A15.76,15.76,0,0,1,245.79,165.76Z" style="fill: rgb(38, 50, 56); transform-origin: 258.678px 285.759px;" id="el16r84mrrlna" class="animable"></path><path d="M232.9,189.83a1.87,1.87,0,0,0-1.83-1.68,1.51,1.51,0,0,0-1.52,1.68l1.4,16.08a1.87,1.87,0,0,0,1.82,1.67,1.51,1.51,0,0,0,1.53-1.67Z" style="fill: rgb(64, 123, 255); transform-origin: 231.924px 197.865px;" id="el157x4qy07uj" class="animable"></path><g id="el79kgdrfdj9u"><path d="M232.9,189.83a1.87,1.87,0,0,0-1.83-1.68,1.51,1.51,0,0,0-1.52,1.68l1.4,16.08a1.87,1.87,0,0,0,1.82,1.67,1.51,1.51,0,0,0,1.53-1.67Z" style="fill: rgb(255, 255, 255); opacity: 0.3; transform-origin: 231.924px 197.865px;" class="animable"></path></g><path d="M271.05,405.77h85.8A15.76,15.76,0,0,0,372.8,388.3L354.86,183.23a19.46,19.46,0,0,0-19-17.47H250.06a15.75,15.75,0,0,0-15.95,17.47L252.05,388.3A19.44,19.44,0,0,0,271.05,405.77Z" style="fill: rgb(64, 123, 255); transform-origin: 303.454px 285.765px;" id="elfkzc9p8dja6" class="animable"></path><path d="M250.41,169.76h22.3a3.25,3.25,0,0,1,3.1,2.54l.15.7a7.9,7.9,0,0,0,7.57,6.19h21.2a6.37,6.37,0,0,0,6.49-6.19l0-.7a2.62,2.62,0,0,1,2.66-2.54h22.3a15,15,0,0,1,14.65,13.47L368.79,388.3a12.14,12.14,0,0,1-12.29,13.46H270.7a15,15,0,0,1-14.64-13.46L238.12,183.23A12.14,12.14,0,0,1,250.41,169.76Z" style="fill: rgb(64, 123, 255); transform-origin: 303.454px 285.76px;" id="els8timqhvpjs" class="animable"></path><g id="elnp705eknz9"><path d="M250.41,169.76h22.3a3.25,3.25,0,0,1,3.1,2.54l.15.7a7.9,7.9,0,0,0,7.57,6.19h21.2a6.37,6.37,0,0,0,6.49-6.19l0-.7a2.62,2.62,0,0,1,2.66-2.54h22.3a15,15,0,0,1,14.65,13.47L368.79,388.3a12.14,12.14,0,0,1-12.29,13.46H270.7a15,15,0,0,1-14.64-13.46L238.12,183.23A12.14,12.14,0,0,1,250.41,169.76Z" style="fill: rgb(255, 255, 255); opacity: 0.8; transform-origin: 303.454px 285.76px;" class="animable"></path></g><g id="elibn6lhp8gh"><g style="opacity: 0.2; transform-origin: 293.504px 172.015px;" class="animable"><path d="M298.69,172a1.89,1.89,0,0,0,1.86,1.7,1.53,1.53,0,0,0,1.55-1.7,1.9,1.9,0,0,0-1.85-1.71A1.55,1.55,0,0,0,298.69,172Z" id="elsjfesnkr3u" class="animable" style="transform-origin: 300.396px 171.995px;"></path><path d="M286.46,170.33h5.84a1.92,1.92,0,0,1,1.86,1.71,1.54,1.54,0,0,1-1.56,1.7h-5.84a1.89,1.89,0,0,1-1.85-1.7A1.53,1.53,0,0,1,286.46,170.33Z" id="elj5a3w3pu9r" class="animable" style="transform-origin: 289.534px 172.035px;"></path></g></g><g id="el38dp6kicgkk"><g style="opacity: 0.2; transform-origin: 336.405px 176.445px;" class="animable"><polygon points="341.15 179.15 339.35 179.15 339.19 177.35 340.99 177.35 341.15 179.15" id="ela9m2fxeiw2e" class="animable" style="transform-origin: 340.17px 178.25px;"></polygon><polygon points="337.38 177.35 337.54 179.15 335.74 179.15 335.58 177.35 335.42 175.54 337.23 175.54 337.38 177.35" id="elleger48aw6" class="animable" style="transform-origin: 336.48px 177.345px;"></polygon><polygon points="333.46 173.74 333.62 175.54 333.78 177.35 333.94 179.15 332.13 179.15 331.97 177.35 331.81 175.54 331.66 173.74 333.46 173.74" id="elfb7y2zyp22f" class="animable" style="transform-origin: 332.8px 176.445px;"></polygon></g></g><g id="el0jzt0pm5mezd"><path d="M247.94,173.86l.47,5.29h7.94l-.12-1.32h.88l-.23-2.65H256l-.12-1.32Zm4.53,1.32h2.65l.23,2.65H252.7Z" style="opacity: 0.2; transform-origin: 252.525px 176.505px;" class="animable"></path></g><g id="elacogl3t4yd"><g style="opacity: 0.2; transform-origin: 312.825px 394.625px;" class="animable"><path d="M287.14,395.84h51.58c1.56,0,1.35-2.43-.21-2.43H286.93c-1.56,0-1.35,2.43.21,2.43Z" id="el8ijwe151xsu" class="animable" style="transform-origin: 312.825px 394.625px;"></path></g></g><path d="M353.29,350.1H341.56a7.5,7.5,0,0,1-7.33-6.74l-1-11.74a6.08,6.08,0,0,1,6.15-6.74h11.74a7.51,7.51,0,0,1,7.33,6.74l1,11.74A6.08,6.08,0,0,1,353.29,350.1Z" style="fill: rgb(64, 123, 255); transform-origin: 346.34px 337.49px;" id="elo5qrpb4d4dh" class="animable"></path><g id="elwe2bk31bde"><path d="M353.29,350.1H341.56a7.5,7.5,0,0,1-7.33-6.74l-1-11.74a6.08,6.08,0,0,1,6.15-6.74h11.74a7.51,7.51,0,0,1,7.33,6.74l1,11.74A6.08,6.08,0,0,1,353.29,350.1Z" style="fill: rgb(255, 255, 255); opacity: 0.5; transform-origin: 346.34px 337.49px;" class="animable"></path></g><path d="M349.92,311.54H338.19a7.5,7.5,0,0,1-7.33-6.74l-1-11.73a6.07,6.07,0,0,1,6.15-6.74h11.74a7.5,7.5,0,0,1,7.33,6.74l1,11.73A6.08,6.08,0,0,1,349.92,311.54Z" style="fill: rgb(64, 123, 255); transform-origin: 342.969px 298.935px;" id="elvtqkw8pgaxr" class="animable"></path><g id="el4cfco9hbtfi"><path d="M349.92,311.54H338.19a7.5,7.5,0,0,1-7.33-6.74l-1-11.73a6.07,6.07,0,0,1,6.15-6.74h11.74a7.5,7.5,0,0,1,7.33,6.74l1,11.73A6.08,6.08,0,0,1,349.92,311.54Z" style="fill: rgb(255, 255, 255); opacity: 0.5; transform-origin: 342.969px 298.935px;" class="animable"></path></g><path d="M311.42,311.54H299.69a7.5,7.5,0,0,1-7.33-6.74l-1-11.73a6.07,6.07,0,0,1,6.15-6.74h11.74a7.5,7.5,0,0,1,7.33,6.74l1,11.73A6.07,6.07,0,0,1,311.42,311.54Z" style="fill: rgb(64, 123, 255); transform-origin: 304.47px 298.935px;" id="eliy577e06vk7" class="animable"></path><g id="eljdg7ao1vf7"><path d="M311.42,311.54H299.69a7.5,7.5,0,0,1-7.33-6.74l-1-11.73a6.07,6.07,0,0,1,6.15-6.74h11.74a7.5,7.5,0,0,1,7.33,6.74l1,11.73A6.07,6.07,0,0,1,311.42,311.54Z" style="fill: rgb(255, 255, 255); opacity: 0.5; transform-origin: 304.47px 298.935px;" class="animable"></path></g><path d="M272.92,311.54H261.19a7.5,7.5,0,0,1-7.33-6.74l-1-11.73a6.08,6.08,0,0,1,6.15-6.74h11.74a7.5,7.5,0,0,1,7.33,6.74l1,11.73A6.08,6.08,0,0,1,272.92,311.54Z" style="fill: rgb(64, 123, 255); transform-origin: 265.97px 298.935px;" id="elbuqqnio58xb" class="animable"></path><path d="M314.8,350.1H303.06a7.51,7.51,0,0,1-7.33-6.74l-1-11.74a6.08,6.08,0,0,1,6.15-6.74h11.74a7.5,7.5,0,0,1,7.33,6.74l1,11.74A6.08,6.08,0,0,1,314.8,350.1Z" style="fill: rgb(64, 123, 255); transform-origin: 307.84px 337.49px;" id="elatlissn79ou" class="animable"></path><g id="elzcxso2p3x19"><path d="M314.8,350.1H303.06a7.51,7.51,0,0,1-7.33-6.74l-1-11.74a6.08,6.08,0,0,1,6.15-6.74h11.74a7.5,7.5,0,0,1,7.33,6.74l1,11.74A6.08,6.08,0,0,1,314.8,350.1Z" style="fill: rgb(255, 255, 255); opacity: 0.5; transform-origin: 307.84px 337.49px;" class="animable"></path></g><path d="M268.78,295.37c.19,2.15-.75,3.89-2.9,3.89s-3.39-1.74-3.58-3.89.75-3.89,2.9-3.89S268.59,293.22,268.78,295.37Z" style="fill: rgb(255, 255, 255); transform-origin: 265.54px 295.37px;" id="elrwi6lp0cbq" class="animable"></path><path d="M266.5,306.39h6l-.31-3.57c-.18-2-3-3.56-6.31-3.56s-5.85,1.59-5.68,3.56l.31,3.57Z" style="fill: rgb(255, 255, 255); transform-origin: 266.346px 302.825px;" id="elfxgxpu5sa54" class="animable"></path><path d="M337.92,340.87l0-.36a2.93,2.93,0,0,1,2.61-3.29,3.3,3.3,0,0,1,1.93.46,4.13,4.13,0,0,1,4.15-3.42,5.14,5.14,0,0,1,4.57,3,2.88,2.88,0,0,1,2.25.75,4.22,4.22,0,0,1,1.52,2.89h0a1.56,1.56,0,0,1-1.58,1.73H339.8A1.93,1.93,0,0,1,337.92,340.87Z" style="fill: rgb(255, 255, 255); transform-origin: 346.428px 338.445px;" id="el6t2tcd3lpuv" class="animable"></path><path d="M302.46,292.61l7.44,5.27a1.84,1.84,0,0,1,.26,2.92l-6.52,5.27a2,2,0,0,1-3.06-1.46l-.92-10.54A1.71,1.71,0,0,1,302.46,292.61Z" style="fill: rgb(64, 123, 255); transform-origin: 305.208px 299.297px;" id="elxf85bp109q" class="animable"></path><path d="M346,305.61h-4.91a4.7,4.7,0,0,1-4.59-4.22l-.43-4.91a3.8,3.8,0,0,1,3.85-4.22h4.91a4.7,4.7,0,0,1,4.59,4.22l.43,4.91A3.8,3.8,0,0,1,346,305.61Z" style="fill: rgb(64, 123, 255); transform-origin: 342.96px 298.935px;" id="el3vpuzgvzxub" class="animable"></path><path d="M309,333.38h0a1.17,1.17,0,0,1-1.19,1h-5.25a1.18,1.18,0,0,0-1.2,1.31l.52,5.95a1.46,1.46,0,0,0,1.43,1.31h10a1.18,1.18,0,0,0,1.19-1.31l-.48-5.56-.15-1.7-.07-.77a1.46,1.46,0,0,0-1.43-1.31H310.2A1.18,1.18,0,0,0,309,333.38Z" style="fill: rgb(255, 255, 255); transform-origin: 307.93px 337.625px;" id="elp9e8xzg3g6" class="animable"></path><path d="M345.65,298.93a2.43,2.43,0,0,1-2.46,2.7,3,3,0,0,1-2.93-2.7,2.42,2.42,0,0,1,2.46-2.69A3,3,0,0,1,345.65,298.93Z" style="fill: rgb(255, 255, 255); transform-origin: 342.955px 298.935px;" id="el0xc72h2drq3n" class="animable"></path><path d="M347.1,295.35a.8.8,0,0,1-.8.89,1,1,0,0,1-1-.89.8.8,0,0,1,.81-.88A1,1,0,0,1,347.1,295.35Z" style="fill: rgb(255, 255, 255); transform-origin: 346.201px 295.355px;" id="ely6gpuy23xu" class="animable"></path><path d="M276.3,350.1H264.56a7.51,7.51,0,0,1-7.33-6.74l-1-11.74a6.08,6.08,0,0,1,6.16-6.74h11.73a7.5,7.5,0,0,1,7.33,6.74l1,11.74A6.08,6.08,0,0,1,276.3,350.1Z" style="fill: rgb(64, 123, 255); transform-origin: 269.34px 337.49px;" id="elqwmj4jsevul" class="animable"></path><g id="el064x13kblct8"><path d="M276.3,350.1H264.56a7.51,7.51,0,0,1-7.33-6.74l-1-11.74a6.08,6.08,0,0,1,6.16-6.74h11.73a7.5,7.5,0,0,1,7.33,6.74l1,11.74A6.08,6.08,0,0,1,276.3,350.1Z" style="fill: rgb(255, 255, 255); opacity: 0.5; transform-origin: 269.34px 337.49px;" class="animable"></path></g><path d="M268.7,330.35a6.43,6.43,0,0,0-6.51,7.14,7.62,7.62,0,0,0,1,3.08l-.33,4,4-.69a7.48,7.48,0,0,0,3.14.71,6.43,6.43,0,0,0,6.51-7.14A8,8,0,0,0,268.7,330.35Z" style="fill: rgb(64, 123, 255); transform-origin: 269.35px 337.47px;" id="ele90ggflwdkd" class="animable"></path><path d="M273,339.81a6.15,6.15,0,0,0-5.94-5.47,2.63,2.63,0,0,0-1.8.45c-.26.29.06,1,.72,1.63s1.41.87,1.68.58a2.59,2.59,0,0,0,.34-1.26,5,5,0,0,1,3.53,3.25,2.3,2.3,0,0,0-1.21.45c-.27.29.05,1,.71,1.63s1.42.86,1.68.57A2.57,2.57,0,0,0,273,339.81Z" style="fill: rgb(255, 255, 255); transform-origin: 269.113px 338.043px;" id="elzggqd3h4wpg" class="animable"></path><path d="M345.41,274.28H260.84a9.81,9.81,0,0,1-9.59-8.82h0a8,8,0,0,1,8.05-8.82h84.57a9.81,9.81,0,0,1,9.59,8.82h0A8,8,0,0,1,345.41,274.28Z" style="fill: rgb(255, 255, 255); transform-origin: 302.355px 265.46px;" id="elouptv74ioid" class="animable"></path><g id="el503gc66qkym"><path d="M304.36,261.09a4.43,4.43,0,1,0,.4,6.69,1,1,0,0,0,.24,1.16l2.73,2.51a1,1,0,0,0,1.37,0,1,1,0,0,0-.12-1.37l-2.73-2.51a1,1,0,0,0-1.17-.14A4.68,4.68,0,0,0,304.36,261.09Zm-.47,5.57a3.42,3.42,0,1,1-.4-4.61A3.26,3.26,0,0,1,303.89,266.66Z" style="opacity: 0.2; transform-origin: 303.277px 265.95px;" class="animable"></path></g><path d="M251.12,201.93l.95,10.78h-2l-.8-9.1H247l-.14-1.68Z" style="fill: rgb(64, 123, 255); transform-origin: 249.465px 207.32px;" id="elu9dkfcfakgl" class="animable"></path><path d="M260.61,207.4a3.14,3.14,0,0,1,1,2.07,2.9,2.9,0,0,1-.33,1.71,2.86,2.86,0,0,1-1.33,1.23,5.21,5.21,0,0,1-2.3.45,7.87,7.87,0,0,1-2.26-.33,6.34,6.34,0,0,1-1.9-.92l.72-1.55a4.84,4.84,0,0,0,1.5.78,5.52,5.52,0,0,0,1.75.28,2.64,2.64,0,0,0,1.63-.44,1.28,1.28,0,0,0,.51-1.19,1.54,1.54,0,0,0-.68-1.18,3.19,3.19,0,0,0-1.8-.42h-1l-.12-1.37,2.2-2.91h-4.9l-.14-1.68h7.34l.11,1.34-2.34,3.11A4,4,0,0,1,260.61,207.4Z" style="fill: rgb(64, 123, 255); transform-origin: 257.394px 207.396px;" id="elgbp9ylzmjor" class="animable"></path><path d="M262.94,206.59a1.33,1.33,0,0,1-.45-.92,1.1,1.1,0,0,1,1.15-1.27,1.32,1.32,0,0,1,.93.35,1.34,1.34,0,0,1,.44.92,1.13,1.13,0,0,1-.29.92,1.12,1.12,0,0,1-.86.36A1.32,1.32,0,0,1,262.94,206.59Zm.51,5.86a1.31,1.31,0,0,1-.45-.91,1.17,1.17,0,0,1,.28-.93,1.15,1.15,0,0,1,.87-.35,1.35,1.35,0,0,1,1.37,1.28,1.08,1.08,0,0,1-.29.91,1.12,1.12,0,0,1-.86.36A1.33,1.33,0,0,1,263.45,212.45Z" style="fill: rgb(64, 123, 255); transform-origin: 264.004px 208.604px;" id="el8suhgtgdbsh" class="animable"></path><path d="M269.06,212.21a5,5,0,0,1-1.77-1.91,7.48,7.48,0,0,1-.84-3,6.7,6.7,0,0,1,.32-3,4,4,0,0,1,1.43-1.91,4,4,0,0,1,2.26-.65,4.54,4.54,0,0,1,2.37.65,5,5,0,0,1,1.77,1.91,7.33,7.33,0,0,1,.85,3,6.85,6.85,0,0,1-.32,3,3.77,3.77,0,0,1-3.7,2.56A4.49,4.49,0,0,1,269.06,212.21Zm3.95-2a4.75,4.75,0,0,0,.42-2.85,5.36,5.36,0,0,0-.91-2.85,2.36,2.36,0,0,0-1.91-.95,1.91,1.91,0,0,0-1.73.95,4.75,4.75,0,0,0-.42,2.85,5.36,5.36,0,0,0,.92,2.85,2.32,2.32,0,0,0,1.89,1A1.92,1.92,0,0,0,273,210.17Z" style="fill: rgb(64, 123, 255); transform-origin: 270.949px 207.301px;" id="el87q75trx6mx" class="animable"></path><path d="M279.42,212.21a5,5,0,0,1-1.77-1.91,7.49,7.49,0,0,1-.85-3,6.69,6.69,0,0,1,.33-3,3.9,3.9,0,0,1,1.43-1.91,3.94,3.94,0,0,1,2.25-.65,4.58,4.58,0,0,1,2.38.65,5,5,0,0,1,1.77,1.91,7.49,7.49,0,0,1,.85,3,6.69,6.69,0,0,1-.33,3,3.86,3.86,0,0,1-1.44,1.91,4,4,0,0,1-2.26.65A4.48,4.48,0,0,1,279.42,212.21Zm3.95-2a4.75,4.75,0,0,0,.42-2.85,5.36,5.36,0,0,0-.92-2.85,2.34,2.34,0,0,0-1.91-.95,1.91,1.91,0,0,0-1.72.95,4.75,4.75,0,0,0-.42,2.85,5.36,5.36,0,0,0,.92,2.85,2.32,2.32,0,0,0,1.89,1A1.92,1.92,0,0,0,283.37,210.17Z" style="fill: rgb(64, 123, 255); transform-origin: 281.305px 207.3px;" id="elk4i9jirvwdn" class="animable"></path><path d="M319,211.8l.08,1h-4.55l-.06-.76,2.24-2.33a2.41,2.41,0,0,0,.5-.69,1.39,1.39,0,0,0,.1-.59.87.87,0,0,0-.35-.66,1.49,1.49,0,0,0-.88-.23,1.58,1.58,0,0,0-1.39.64l-.85-.61a2,2,0,0,1,.91-.76,3.18,3.18,0,0,1,1.34-.27,2.69,2.69,0,0,1,1.65.48,1.73,1.73,0,0,1,.71,1.3,2,2,0,0,1-.13.94,3.06,3.06,0,0,1-.72,1l-1.51,1.57Z" style="fill: rgb(64, 123, 255); transform-origin: 316.46px 209.669px;" id="el804drdrw58m" class="animable"></path><path d="M323.35,209.5a1.87,1.87,0,0,1,.74,1.38,1.76,1.76,0,0,1-.18,1,1.72,1.72,0,0,1-.76.72,3,3,0,0,1-1.32.26,4.4,4.4,0,0,1-1.3-.19,3.62,3.62,0,0,1-1.08-.52l.4-.89a3.23,3.23,0,0,0,.87.44,3.12,3.12,0,0,0,1,.16,1.5,1.5,0,0,0,.94-.25.73.73,0,0,0,.28-.69.87.87,0,0,0-.43-.72,2.67,2.67,0,0,0-1.31-.24h-1.49l0-3.36h3.62l.08,1h-2.65V209h.59A3.25,3.25,0,0,1,323.35,209.5Z" style="fill: rgb(64, 123, 255); transform-origin: 321.776px 209.731px;" id="ela3wm13zjgyh" class="animable"></path><path d="M325.22,209.29a1.67,1.67,0,0,1-.58-.54,1.51,1.51,0,0,1-.27-.74,1.31,1.31,0,0,1,.14-.74,1.22,1.22,0,0,1,.49-.54,1.41,1.41,0,0,1,.74-.2,1.62,1.62,0,0,1,.78.2,1.69,1.69,0,0,1,.59.54,1.5,1.5,0,0,1,.26.74,1.4,1.4,0,0,1-.13.74,1.37,1.37,0,0,1-.5.54,1.41,1.41,0,0,1-.74.19A1.61,1.61,0,0,1,325.22,209.29Zm1.34-.64a.82.82,0,0,0,.19-.64.91.91,0,0,0-.31-.64.92.92,0,0,0-.65-.26.8.8,0,0,0-.61.26.79.79,0,0,0-.2.64,1,1,0,0,0,1,.89A.79.79,0,0,0,326.56,208.65Z" style="fill: rgb(64, 123, 255); transform-origin: 325.87px 208.005px;" id="eledsqp7oemhk" class="animable"></path><path d="M339.86,212.86H329.39a1.83,1.83,0,0,1-1.79-1.65l0-.28a2.55,2.55,0,0,1,2.28-2.86,2.88,2.88,0,0,1,1.32.22,3.47,3.47,0,0,1,3.4-2.5,4.35,4.35,0,0,1,3.74,2.28,2.58,2.58,0,0,1,1.75.67,3.6,3.6,0,0,1,1.3,2.47A1.49,1.49,0,0,1,339.86,212.86Zm-9.74-4.17H330a2,2,0,0,0-1.75,2.23l0,.28a1.14,1.14,0,0,0,1.11,1H339.8a.92.92,0,0,0,.93-1,2.89,2.89,0,0,0-1.05-2,1.91,1.91,0,0,0-1.49-.51l-.24,0-.1-.23a3.66,3.66,0,0,0-3.22-2.09,2.92,2.92,0,0,0-2.93,2.41l-.08.41-.37-.22A2.23,2.23,0,0,0,330.12,208.69Z" style="fill: rgb(64, 123, 255); transform-origin: 334.489px 209.325px;" id="eljc1ecnrmca" class="animable"></path><path d="M340.93,206.35a1.45,1.45,0,0,1-1.41-1.3,1.17,1.17,0,0,1,1.19-1.3,1.45,1.45,0,0,1,1.41,1.3A1.18,1.18,0,0,1,340.93,206.35Zm-.19-2.24a.85.85,0,0,0-.86.94,1.05,1.05,0,0,0,1,.93.85.85,0,0,0,.86-.93A1.05,1.05,0,0,0,340.74,204.11Z" style="fill: rgb(64, 123, 255); transform-origin: 340.819px 205.05px;" id="elkbneruu8uq" class="animable"></path><polygon points="340.84 203.18 340.48 203.18 340.36 201.82 340.72 201.82 340.84 203.18" style="fill: rgb(64, 123, 255); transform-origin: 340.6px 202.5px;" id="elq0x1ufrcdu" class="animable"></polygon><polygon points="341.28 208.28 340.92 208.28 340.8 206.92 341.17 206.92 341.28 208.28" style="fill: rgb(64, 123, 255); transform-origin: 341.04px 207.6px;" id="elckdjqmcml16" class="animable"></polygon><polygon points="344.07 205.23 342.71 205.23 342.68 204.87 344.03 204.87 344.07 205.23" style="fill: rgb(64, 123, 255); transform-origin: 343.375px 205.05px;" id="el07no63uj8vwx" class="animable"></polygon><polygon points="338.97 205.23 337.61 205.23 337.57 204.87 338.93 204.87 338.97 205.23" style="fill: rgb(64, 123, 255); transform-origin: 338.27px 205.05px;" id="elbg8qlehk36f" class="animable"></polygon><polygon points="342.17 203.85 341.89 203.6 342.76 202.64 343.04 202.89 342.17 203.85" style="fill: rgb(64, 123, 255); transform-origin: 342.465px 203.245px;" id="elb7dbfwggjic" class="animable"></polygon><polygon points="338.88 207.46 338.6 207.2 339.48 206.24 339.75 206.5 338.88 207.46" style="fill: rgb(64, 123, 255); transform-origin: 339.175px 206.85px;" id="el0zihbx06v8f" class="animable"></polygon><polygon points="343.19 207.46 342.14 206.5 342.38 206.24 343.42 207.2 343.19 207.46" style="fill: rgb(64, 123, 255); transform-origin: 342.78px 206.85px;" id="el15k3libi4fe" class="animable"></polygon><polygon points="339.27 203.85 338.22 202.89 338.45 202.64 339.5 203.6 339.27 203.85" style="fill: rgb(64, 123, 255); transform-origin: 338.86px 203.245px;" id="elheh9fmd0umd" class="animable"></polygon></g><g id="freepik--Screen--inject-313" class="animable" style="transform-origin: 165.115px 241.091px;"><path d="M106.18,112.22H131A3.59,3.59,0,0,1,134.4,115l.17.77a8.78,8.78,0,0,0,8.41,6.88h23.56a7.08,7.08,0,0,0,7.21-6.88l0-.77a2.9,2.9,0,0,1,2.95-2.82h24.78a16.66,16.66,0,0,1,16.27,15L237.71,355a13.49,13.49,0,0,1-13.65,15H128.73a16.66,16.66,0,0,1-16.27-15L92.52,127.18A13.49,13.49,0,0,1,106.18,112.22Z" style="fill: rgb(64, 123, 255); transform-origin: 165.117px 241.091px;" id="elc5sf5pzrxpb" class="animable"></path><g id="el6pnvnbvm0u3"><path d="M106.18,112.22H131A3.59,3.59,0,0,1,134.4,115l.17.77a8.78,8.78,0,0,0,8.41,6.88h23.56a7.08,7.08,0,0,0,7.21-6.88l0-.77a2.9,2.9,0,0,1,2.95-2.82h24.78a16.66,16.66,0,0,1,16.27,15L237.71,355a13.49,13.49,0,0,1-13.65,15H128.73a16.66,16.66,0,0,1-16.27-15L92.52,127.18A13.49,13.49,0,0,1,106.18,112.22Z" style="fill: rgb(255, 255, 255); opacity: 0.7; transform-origin: 165.117px 241.091px;" class="animable"></path></g><g id="elis2v1i2qoi"><g style="opacity: 0.2; transform-origin: 175.532px 362.07px;" class="animable"><path d="M147,363.42h57.3c1.74,0,1.51-2.7-.23-2.7H146.76c-1.74,0-1.5,2.7.24,2.7Z" id="el6g9v0zosubc" class="animable" style="transform-origin: 175.532px 362.07px;"></path></g></g><path d="M201.51,112.22H176.73a2.9,2.9,0,0,0-2.95,2.82l0,.77a7.08,7.08,0,0,1-7.21,6.88H143a8.78,8.78,0,0,1-8.41-6.88l-.17-.77a3.59,3.59,0,0,0-3.44-2.82H106.18a13.49,13.49,0,0,0-13.66,15l4.94,56.44H222.72l-4.94-56.44A16.66,16.66,0,0,0,201.51,112.22Z" style="fill: rgb(64, 123, 255); transform-origin: 157.577px 147.939px;" id="el40by45hcpwt" class="animable"></path><g id="eli0dxay1033j"><g style="opacity: 0.5; transform-origin: 201.735px 119.645px;" class="animable"><polygon points="207.01 122.65 205 122.65 204.83 120.65 206.83 120.65 207.01 122.65" style="fill: rgb(255, 255, 255); transform-origin: 205.92px 121.65px;" id="el4juluo61x3q" class="animable"></polygon><polygon points="202.82 120.65 203 122.65 200.99 122.65 200.82 120.65 200.64 118.64 202.65 118.64 202.82 120.65" style="fill: rgb(255, 255, 255); transform-origin: 201.82px 120.645px;" id="elkeg9eo39wy" class="animable"></polygon><polygon points="198.46 116.64 198.64 118.64 198.81 120.65 198.99 122.65 196.98 122.65 196.81 120.65 196.63 118.64 196.46 116.64 198.46 116.64" style="fill: rgb(255, 255, 255); transform-origin: 197.725px 119.645px;" id="el7nrisqs5f13" class="animable"></polygon></g></g><g id="elecvja7caeg9"><path d="M103.44,116.77l.52,5.88h8.82l-.13-1.47h1l-.26-2.94h-1l-.13-1.47Zm5,1.47h2.94l.26,2.94h-2.94Z" style="fill: rgb(255, 255, 255); opacity: 0.5; transform-origin: 108.545px 119.71px;" class="animable"></path></g><path d="M129.19,176.47h-13A8.34,8.34,0,0,1,108,169l-1.14-13a6.76,6.76,0,0,1,6.83-7.49h13a8.34,8.34,0,0,1,8.15,7.49L136,169A6.76,6.76,0,0,1,129.19,176.47Z" style="fill: rgb(255, 255, 255); transform-origin: 121.429px 162.49px;" id="el0977b85k0vz3" class="animable"></path><path d="M124.59,158.5c.21,2.39-.83,4.32-3.22,4.32s-3.77-1.93-4-4.32.84-4.32,3.22-4.32S124.38,156.12,124.59,158.5Z" style="fill: rgb(64, 123, 255); transform-origin: 120.978px 158.5px;" id="elqj7c0po4chh" class="animable"></path><path d="M122.06,170.74h6.66l-.34-4c-.19-2.18-3.33-4-7-4s-6.5,1.78-6.31,4l.34,4Z" style="fill: rgb(64, 123, 255); transform-origin: 121.89px 166.74px;" id="el73pui3j2pop" class="animable"></path><path d="M189.35,166.78H148.07a2.41,2.41,0,0,1-2.35-2.16h0a2,2,0,0,1,2-2.16H189a2.4,2.4,0,0,1,2.34,2.16h0A1.94,1.94,0,0,1,189.35,166.78Z" style="fill: rgb(255, 255, 255); transform-origin: 168.533px 164.621px;" id="el8zlacakxf2c" class="animable"></path><path d="M210.07,161.64h-9.32a1,1,0,0,1-1-.9h0a.82.82,0,0,1,.82-.9h9.32a1,1,0,0,1,1,.9h0A.8.8,0,0,1,210.07,161.64Z" style="fill: rgb(255, 255, 255); transform-origin: 205.321px 160.74px;" id="elwq1pd4tt6zb" class="animable"></path><path d="M210.42,165.74h-9.31a1,1,0,0,1-1-.9h0A.81.81,0,0,1,201,164h9.32a1,1,0,0,1,1,.89h0A.8.8,0,0,1,210.42,165.74Z" style="fill: rgb(255, 255, 255); transform-origin: 205.716px 164.871px;" id="elhnjnj1kls9e" class="animable"></path><path d="M210.78,169.84h-9.31a1,1,0,0,1-1-.89h0a.81.81,0,0,1,.82-.9h9.32a1,1,0,0,1,1,.9h0A.8.8,0,0,1,210.78,169.84Z" style="fill: rgb(255, 255, 255); transform-origin: 206.04px 168.945px;" id="el0cl0wurfv0ib" class="animable"></path><path d="M159.72,220.85H116.18a4,4,0,0,1-4-3.64l-2-23.33a3.27,3.27,0,0,1,3.31-3.63H157a4,4,0,0,1,4,3.63l2,23.33A3.28,3.28,0,0,1,159.72,220.85Z" style="fill: rgb(38, 50, 56); transform-origin: 136.59px 205.55px;" id="elko0rqq4d99g" class="animable"></path><g id="elaut2tt2q7b"><path d="M159.72,220.85H116.18a4,4,0,0,1-4-3.64l-2-23.33a3.27,3.27,0,0,1,3.31-3.63H157a4,4,0,0,1,4,3.63l2,23.33A3.28,3.28,0,0,1,159.72,220.85Z" style="fill: rgb(255, 255, 255); opacity: 0.6; transform-origin: 136.59px 205.55px;" class="animable"></path></g><path d="M162.88,257H119.34a4,4,0,0,1-4-3.63l-2-23.33a3.28,3.28,0,0,1,3.31-3.64H160.2a4,4,0,0,1,4,3.64l2,23.33A3.27,3.27,0,0,1,162.88,257Z" style="fill: rgb(38, 50, 56); transform-origin: 139.77px 241.7px;" id="eljnly75pzd7" class="animable"></path><g id="elycmw9k6lc5"><path d="M162.88,257H119.34a4,4,0,0,1-4-3.63l-2-23.33a3.28,3.28,0,0,1,3.31-3.64H160.2a4,4,0,0,1,4,3.64l2,23.33A3.27,3.27,0,0,1,162.88,257Z" style="fill: rgb(255, 255, 255); opacity: 0.6; transform-origin: 139.77px 241.7px;" class="animable"></path></g><path d="M171.29,353.12H127.75a4.05,4.05,0,0,1-4-3.63l-2-23.34a3.27,3.27,0,0,1,3.31-3.63h43.54a4,4,0,0,1,3.95,3.63l2,23.34A3.27,3.27,0,0,1,171.29,353.12Z" style="fill: rgb(38, 50, 56); transform-origin: 148.15px 337.82px;" id="el0gqf5op7vutm" class="animable"></path><g id="elnkjm7dvdage"><path d="M171.29,353.12H127.75a4.05,4.05,0,0,1-4-3.63l-2-23.34a3.27,3.27,0,0,1,3.31-3.63h43.54a4,4,0,0,1,3.95,3.63l2,23.34A3.27,3.27,0,0,1,171.29,353.12Z" style="fill: rgb(255, 255, 255); opacity: 0.6; transform-origin: 148.15px 337.82px;" class="animable"></path></g><polygon points="234.45 317.68 109.19 317.68 104.31 261.83 229.56 261.83 234.45 317.68" style="fill: rgb(38, 50, 56); transform-origin: 169.38px 289.755px;" id="eln63otxfkz7" class="animable"></polygon><path d="M165.94,279.85l10.95,7.76a2.71,2.71,0,0,1,.38,4.29l-9.6,7.75a2.87,2.87,0,0,1-4.49-2.14L161.82,282A2.52,2.52,0,0,1,165.94,279.85Z" style="fill: rgb(255, 255, 255); transform-origin: 169.981px 289.713px;" id="elpxbptbj3g2p" class="animable"></path><path d="M212.24,205.55H173.35a2.85,2.85,0,0,1-2.79-2.57h0a2.31,2.31,0,0,1,2.34-2.56h38.89a2.85,2.85,0,0,1,2.79,2.56h0A2.32,2.32,0,0,1,212.24,205.55Z" style="fill: rgb(38, 50, 56); transform-origin: 192.57px 202.985px;" id="elo57foqczck" class="animable"></path><path d="M206,216.6h-31.7a2.85,2.85,0,0,1-2.78-2.56h0a2.31,2.31,0,0,1,2.34-2.57h31.69a2.87,2.87,0,0,1,2.79,2.57h0A2.32,2.32,0,0,1,206,216.6Z" style="fill: rgb(38, 50, 56); transform-origin: 189.929px 214.035px;" id="eldb95st4fcnb" class="animable"></path><g id="el98r9qpxhc2k"><g style="opacity: 0.6; transform-origin: 192.57px 208.51px;" class="animable"><path d="M212.24,205.55H173.35a2.85,2.85,0,0,1-2.79-2.57h0a2.31,2.31,0,0,1,2.34-2.56h38.89a2.85,2.85,0,0,1,2.79,2.56h0A2.32,2.32,0,0,1,212.24,205.55Z" style="fill: rgb(255, 255, 255); transform-origin: 192.57px 202.985px;" id="elekqvqbzhqa7" class="animable"></path><path d="M206,216.6h-31.7a2.85,2.85,0,0,1-2.78-2.56h0a2.31,2.31,0,0,1,2.34-2.57h31.69a2.87,2.87,0,0,1,2.79,2.57h0A2.32,2.32,0,0,1,206,216.6Z" style="fill: rgb(255, 255, 255); transform-origin: 189.929px 214.035px;" id="elmp2p8wwvdg" class="animable"></path></g></g><path d="M215.47,242.49H176.58a2.86,2.86,0,0,1-2.79-2.56h0a2.31,2.31,0,0,1,2.34-2.56H215a2.84,2.84,0,0,1,2.79,2.56h0A2.31,2.31,0,0,1,215.47,242.49Z" style="fill: rgb(38, 50, 56); transform-origin: 195.79px 239.93px;" id="ell8qob2j8wdq" class="animable"></path><path d="M209.24,253.55H177.55a2.85,2.85,0,0,1-2.79-2.57h0a2.31,2.31,0,0,1,2.34-2.56h31.69a2.86,2.86,0,0,1,2.79,2.56h0A2.32,2.32,0,0,1,209.24,253.55Z" style="fill: rgb(38, 50, 56); transform-origin: 193.17px 250.985px;" id="ell1ki374zhqp" class="animable"></path><g id="el3fckq2nqtm1"><g style="opacity: 0.6; transform-origin: 195.79px 245.46px;" class="animable"><path d="M215.47,242.49H176.58a2.86,2.86,0,0,1-2.79-2.56h0a2.31,2.31,0,0,1,2.34-2.56H215a2.84,2.84,0,0,1,2.79,2.56h0A2.31,2.31,0,0,1,215.47,242.49Z" style="fill: rgb(255, 255, 255); transform-origin: 195.79px 239.93px;" id="elqj46k4f20t" class="animable"></path><path d="M209.24,253.55H177.55a2.85,2.85,0,0,1-2.79-2.57h0a2.31,2.31,0,0,1,2.34-2.56h31.69a2.86,2.86,0,0,1,2.79,2.56h0A2.32,2.32,0,0,1,209.24,253.55Z" style="fill: rgb(255, 255, 255); transform-origin: 193.17px 250.985px;" id="elydbywnhvcg" class="animable"></path></g></g><path d="M224,339.37H185.06a2.85,2.85,0,0,1-2.79-2.57h0a2.31,2.31,0,0,1,2.34-2.56H223.5a2.86,2.86,0,0,1,2.79,2.56h0A2.32,2.32,0,0,1,224,339.37Z" style="fill: rgb(38, 50, 56); transform-origin: 204.28px 336.805px;" id="elo7siwhol9ap" class="animable"></path><path d="M217.71,350.42H186a2.87,2.87,0,0,1-2.79-2.57h0a2.32,2.32,0,0,1,2.34-2.56h31.7a2.85,2.85,0,0,1,2.78,2.56h0A2.31,2.31,0,0,1,217.71,350.42Z" style="fill: rgb(38, 50, 56); transform-origin: 201.621px 347.855px;" id="elxlkhejnocgb" class="animable"></path><g id="elqiasxcfkgnj"><g style="opacity: 0.6; transform-origin: 204.28px 342.33px;" class="animable"><path d="M224,339.37H185.06a2.85,2.85,0,0,1-2.79-2.57h0a2.31,2.31,0,0,1,2.34-2.56H223.5a2.86,2.86,0,0,1,2.79,2.56h0A2.32,2.32,0,0,1,224,339.37Z" style="fill: rgb(255, 255, 255); transform-origin: 204.28px 336.805px;" id="elnnl0dnwo7ng" class="animable"></path><path d="M217.71,350.42H186a2.87,2.87,0,0,1-2.79-2.57h0a2.32,2.32,0,0,1,2.34-2.56h31.7a2.85,2.85,0,0,1,2.78,2.56h0A2.31,2.31,0,0,1,217.71,350.42Z" style="fill: rgb(255, 255, 255); transform-origin: 201.621px 347.855px;" id="eljribjv1278n" class="animable"></path></g></g></g><g id="freepik--Coins--inject-313" class="animable" style="transform-origin: 255.585px 279.032px;"><path d="M111.84,364.91a24,24,0,0,0-5-47.76l-4.61.49a24,24,0,1,0,5,47.75Z" style="fill: rgb(64, 123, 255); transform-origin: 107.033px 341.27px;" id="elz3u8d2r32qh" class="animable"></path><g id="elqs0c2tvb56n"><g style="opacity: 0.2; transform-origin: 100.12px 341.77px;" class="animable"><path d="M118.21,348.2l-35.15,3.69q.34.71.72,1.38l34.58-3.63Z" style="fill: rgb(255, 255, 255); transform-origin: 100.71px 350.735px;" id="elpehxc5rlb6" class="animable"></path><path d="M117.62,342.57,81.21,346.4c.1.48.21,1,.34,1.42L117.77,344Z" style="fill: rgb(255, 255, 255); transform-origin: 99.49px 345.195px;" id="elr8yb1mvt9rd" class="animable"></path><path d="M117,336.94l-36.3,3.82c0,.48,0,1,0,1.46l36.45-3.84Z" style="fill: rgb(255, 255, 255); transform-origin: 98.925px 339.58px;" id="elzuqy8dy8lls" class="animable"></path><path d="M118.8,353.82l-32.25,3.39c.4.46.81.9,1.24,1.33L119,355.26Z" style="fill: rgb(255, 255, 255); transform-origin: 102.775px 356.18px;" id="elrszzdv603bn" class="animable"></path><path d="M87.89,324.4l27.51-2.89-.15-1.44-25.5,2.68A22.37,22.37,0,0,0,87.89,324.4Z" style="fill: rgb(255, 255, 255); transform-origin: 101.645px 322.235px;" id="elooui63yijci" class="animable"></path><path d="M119.39,359.45l-26.75,2.81A22.8,22.8,0,0,0,95,363.47l24.54-2.58Z" style="fill: rgb(255, 255, 255); transform-origin: 106.09px 361.46px;" id="elxwpno6byat" class="animable"></path><path d="M115.84,325.69,84.22,329c-.3.51-.59,1-.86,1.55L116,327.13Z" style="fill: rgb(255, 255, 255); transform-origin: 99.68px 328.12px;" id="elymo07xijveo" class="animable"></path><path d="M116.43,331.32,81.62,335c-.14.49-.27,1-.38,1.49l35.34-3.71Z" style="fill: rgb(255, 255, 255); transform-origin: 98.91px 333.905px;" id="elxqrpg0opr08" class="animable"></path></g></g><g id="eljgibo3mdlu"><circle cx="109.33" cy="341.03" r="24.01" style="fill: rgb(64, 123, 255); transform-origin: 109.33px 341.03px; transform: rotate(-68.8387deg);" class="animable"></circle></g><g id="elfwa6306yqga"><circle cx="109.33" cy="341.03" r="24.01" style="fill: rgb(255, 255, 255); opacity: 0.4; transform-origin: 109.33px 341.03px; transform: rotate(-68.8387deg);" class="animable"></circle></g><g id="el5p280c2hroi"><circle cx="109.33" cy="341.03" r="19.37" style="fill: rgb(255, 255, 255); opacity: 0.2; transform-origin: 109.33px 341.03px; transform: rotate(-87.7094deg);" class="animable"></circle></g><path d="M107.3,321.76c-.39,0-.78.1-1.16.17a19.37,19.37,0,0,1,4,38.45c.39,0,.78,0,1.17-.08a19.38,19.38,0,0,0-4-38.54Z" style="fill: rgb(64, 123, 255); transform-origin: 117.165px 341.041px;" id="elw1itvsbtc6f" class="animable"></path><path d="M114.69,348.22a7.89,7.89,0,0,1-4.44,2.44l.31,3-2.68.29-.31-2.93a14.51,14.51,0,0,1-3.86-.3,9.48,9.48,0,0,1-3-1.15l1.13-3.43a9.55,9.55,0,0,0,2.52,1,10.84,10.84,0,0,0,2.89.35l-.47-4.49a19.81,19.81,0,0,1-3.33-.68,5.62,5.62,0,0,1-2.38-1.42,4.5,4.5,0,0,1-1.19-2.79,5.2,5.2,0,0,1,1.23-4,7.75,7.75,0,0,1,4.48-2.44l-.32-3,2.69-.28.31,2.92a11.92,11.92,0,0,1,5.62,1.07l-1,3.44a10.69,10.69,0,0,0-4.26-1l.48,4.56a20.78,20.78,0,0,1,3.29.65,5.75,5.75,0,0,1,2.36,1.41,4.41,4.41,0,0,1,1.19,2.77A5.14,5.14,0,0,1,114.69,348.22Zm-9.93-9.72a4.27,4.27,0,0,0,1.55.57l-.4-3.82a2.89,2.89,0,0,0-1.42.93,1.76,1.76,0,0,0-.36,1.27A1.4,1.4,0,0,0,104.76,338.5Zm6.49,7.76a1.58,1.58,0,0,0,.36-1.21A1.41,1.41,0,0,0,111,344a4.39,4.39,0,0,0-1.51-.6l.39,3.71A2.86,2.86,0,0,0,111.25,346.26Z" style="fill: rgb(64, 123, 255); transform-origin: 107.915px 341.17px;" id="elfro14eebsg" class="animable"></path><path d="M116.34,348.05a7.89,7.89,0,0,1-4.44,2.43l.31,3-2.68.28-.31-2.92a15.35,15.35,0,0,1-3.86-.3,9.64,9.64,0,0,1-3.06-1.15l1.14-3.43a9.9,9.9,0,0,0,2.52,1,11.27,11.27,0,0,0,2.89.35l-.47-4.49a20.4,20.4,0,0,1-3.33-.68,5.72,5.72,0,0,1-2.38-1.42,4.47,4.47,0,0,1-1.19-2.8,5.19,5.19,0,0,1,1.22-4,7.73,7.73,0,0,1,4.48-2.44l-.31-3,2.69-.28.31,2.93a11.8,11.8,0,0,1,5.62,1.07l-1,3.44a10.61,10.61,0,0,0-4.25-1l.48,4.56a19.37,19.37,0,0,1,3.28.65,5.43,5.43,0,0,1,2.36,1.41,4.35,4.35,0,0,1,1.19,2.76A5.11,5.11,0,0,1,116.34,348.05Zm-9.93-9.73a4.27,4.27,0,0,0,1.55.57l-.4-3.81a2.9,2.9,0,0,0-1.42.92,1.74,1.74,0,0,0-.36,1.27A1.4,1.4,0,0,0,106.41,338.32Zm6.49,7.77a1.58,1.58,0,0,0,.36-1.21,1.4,1.4,0,0,0-.61-1.05,4.45,4.45,0,0,0-1.52-.6l.39,3.71A3,3,0,0,0,112.9,346.09Z" style="fill: rgb(64, 123, 255); transform-origin: 109.519px 340.98px;" id="elsrxjbpbqqf" class="animable"></path><g id="el13ke6jmv2yz"><g style="opacity: 0.4; transform-origin: 109.519px 340.98px;" class="animable"><path d="M116.34,348.05a7.89,7.89,0,0,1-4.44,2.43l.31,3-2.68.28-.31-2.92a15.35,15.35,0,0,1-3.86-.3,9.64,9.64,0,0,1-3.06-1.15l1.14-3.43a9.9,9.9,0,0,0,2.52,1,11.27,11.27,0,0,0,2.89.35l-.47-4.49a20.4,20.4,0,0,1-3.33-.68,5.72,5.72,0,0,1-2.38-1.42,4.47,4.47,0,0,1-1.19-2.8,5.19,5.19,0,0,1,1.22-4,7.73,7.73,0,0,1,4.48-2.44l-.31-3,2.69-.28.31,2.93a11.8,11.8,0,0,1,5.62,1.07l-1,3.44a10.61,10.61,0,0,0-4.25-1l.48,4.56a19.37,19.37,0,0,1,3.28.65,5.43,5.43,0,0,1,2.36,1.41,4.35,4.35,0,0,1,1.19,2.76A5.11,5.11,0,0,1,116.34,348.05Zm-9.93-9.73a4.27,4.27,0,0,0,1.55.57l-.4-3.81a2.9,2.9,0,0,0-1.42.92,1.74,1.74,0,0,0-.36,1.27A1.4,1.4,0,0,0,106.41,338.32Zm6.49,7.77a1.58,1.58,0,0,0,.36-1.21,1.4,1.4,0,0,0-.61-1.05,4.45,4.45,0,0,0-1.52-.6l.39,3.71A3,3,0,0,0,112.9,346.09Z" style="fill: rgb(255, 255, 255); transform-origin: 109.519px 340.98px;" id="elpbydxhmxq9k" class="animable"></path></g></g><path d="M399.19,206.56a26.1,26.1,0,0,0-5.45-51.92l-5,.53a26.1,26.1,0,0,0,5.46,51.91Z" style="fill: rgb(64, 123, 255); transform-origin: 394.122px 180.845px;" id="elmpf69gfpoib" class="animable"></path><g id="eltawcq9e1d5j"><g style="opacity: 0.2; transform-origin: 386.47px 181.4px;" class="animable"><path d="M406.12,188.39l-38.21,4c.25.51.51,1,.78,1.51l37.59-4Z" style="fill: rgb(255, 255, 255); transform-origin: 387.095px 191.145px;" id="el1t4ti86mgc3" class="animable"></path><path d="M405.48,182.27l-39.58,4.16c.1.52.23,1,.37,1.55l39.37-4.14Z" style="fill: rgb(255, 255, 255); transform-origin: 385.77px 185.125px;" id="el8gcx2cue51b" class="animable"></path><path d="M404.83,176.16l-39.46,4.14q0,.8,0,1.59L405,177.72Z" style="fill: rgb(255, 255, 255); transform-origin: 385.185px 179.025px;" id="el177gln7yibt" class="animable"></path><path d="M406.76,194.5l-35.05,3.69c.43.5.87,1,1.34,1.44l33.88-3.56Z" style="fill: rgb(255, 255, 255); transform-origin: 389.32px 197.065px;" id="elc404713pfgw" class="animable"></path><path d="M373.16,162.52l29.91-3.15-.17-1.56-27.71,2.91A23.1,23.1,0,0,0,373.16,162.52Z" style="fill: rgb(255, 255, 255); transform-origin: 388.115px 160.165px;" id="elltwablj95jc" class="animable"></path><path d="M407.4,200.62l-29.08,3.06a27,27,0,0,0,2.57,1.31l26.68-2.8Z" style="fill: rgb(255, 255, 255); transform-origin: 392.945px 202.805px;" id="elvb6kulz6lo" class="animable"></path><path d="M403.55,163.92l-34.38,3.62c-.33.54-.65,1.11-.94,1.68l35.48-3.73Z" style="fill: rgb(255, 255, 255); transform-origin: 385.97px 166.57px;" id="elntdt8w6a8u" class="animable"></path><path d="M404.19,170l-37.85,4c-.15.53-.29,1.08-.41,1.62l38.42-4Z" style="fill: rgb(255, 255, 255); transform-origin: 385.14px 172.81px;" id="ellqpcvx4yvx" class="animable"></path></g></g><g id="elu2zley4nj6b"><circle cx="396.46" cy="180.6" r="26.1" style="fill: rgb(64, 123, 255); transform-origin: 396.46px 180.6px; transform: rotate(-35.83deg);" class="animable"></circle></g><g id="el02jx70iatr2g"><circle cx="396.46" cy="180.6" r="26.1" style="fill: rgb(255, 255, 255); opacity: 0.4; transform-origin: 396.46px 180.6px; transform: rotate(-35.83deg);" class="animable"></circle></g><g id="elx53on284bd"><circle cx="396.46" cy="180.6" r="21.06" style="fill: rgb(255, 255, 255); opacity: 0.2; transform-origin: 396.46px 180.6px; transform: rotate(-72.52deg);" class="animable"></circle></g><path d="M394.26,159.65c-.43,0-.85.11-1.27.18a21.06,21.06,0,0,1,4.4,41.81c.42,0,.85,0,1.28-.1a21.06,21.06,0,0,0-4.41-41.89Z" style="fill: rgb(64, 123, 255); transform-origin: 405.258px 180.587px;" id="el5phkbj997im" class="animable"></path><path d="M402.3,188.41a8.51,8.51,0,0,1-4.83,2.65l.34,3.27-2.92.31-.33-3.18a16.2,16.2,0,0,1-4.2-.33,10.33,10.33,0,0,1-3.32-1.24l1.23-3.74a10.4,10.4,0,0,0,2.74,1.1,11.54,11.54,0,0,0,3.14.38l-.51-4.87A22.37,22.37,0,0,1,390,182a6.06,6.06,0,0,1-2.58-1.54,4.83,4.83,0,0,1-1.3-3,5.67,5.67,0,0,1,1.33-4.34,8.43,8.43,0,0,1,4.88-2.66l-.35-3.24,2.92-.31.34,3.19a12.84,12.84,0,0,1,6.11,1.16L400.29,175a11.83,11.83,0,0,0-4.63-1.05l.53,5a20.51,20.51,0,0,1,3.57.7,6.19,6.19,0,0,1,2.57,1.53,4.84,4.84,0,0,1,1.29,3A5.61,5.61,0,0,1,402.3,188.41Zm-10.8-10.57a4.47,4.47,0,0,0,1.69.62l-.44-4.14a3.11,3.11,0,0,0-1.54,1,1.93,1.93,0,0,0-.39,1.38A1.5,1.5,0,0,0,391.5,177.84Zm7.06,8.44A1.72,1.72,0,0,0,399,185a1.54,1.54,0,0,0-.66-1.14,4.93,4.93,0,0,0-1.65-.65l.42,4A3.17,3.17,0,0,0,398.56,186.28Z" style="fill: rgb(64, 123, 255); transform-origin: 394.866px 180.775px;" id="elif0s7j1yoqk" class="animable"></path><path d="M404.09,188.23a8.56,8.56,0,0,1-4.83,2.64l.34,3.28-2.92.3-.33-3.18a16.2,16.2,0,0,1-4.2-.33,10.33,10.33,0,0,1-3.32-1.24l1.23-3.73a11.13,11.13,0,0,0,2.74,1.1,11.94,11.94,0,0,0,3.14.37l-.51-4.87a23.6,23.6,0,0,1-3.62-.74,6.18,6.18,0,0,1-2.58-1.55,4.83,4.83,0,0,1-1.3-3,5.67,5.67,0,0,1,1.33-4.34,8.49,8.49,0,0,1,4.88-2.66L393.8,167l2.91-.3.34,3.18a12.84,12.84,0,0,1,6.11,1.16l-1.08,3.74a11.83,11.83,0,0,0-4.63-1.05l.53,5a21.48,21.48,0,0,1,3.57.7,6.19,6.19,0,0,1,2.57,1.53,4.87,4.87,0,0,1,1.29,3A5.62,5.62,0,0,1,404.09,188.23Zm-10.8-10.57a4.65,4.65,0,0,0,1.69.61l-.44-4.14a3.18,3.18,0,0,0-1.54,1,1.94,1.94,0,0,0-.39,1.39A1.53,1.53,0,0,0,393.29,177.66Zm7.06,8.44a1.76,1.76,0,0,0,.39-1.32,1.54,1.54,0,0,0-.66-1.14,4.93,4.93,0,0,0-1.65-.65l.42,4A3.24,3.24,0,0,0,400.35,186.1Z" style="fill: rgb(64, 123, 255); transform-origin: 396.668px 180.575px;" id="eluz3l2ca1gre" class="animable"></path><g id="el3uo8r9nfazu"><g style="opacity: 0.4; transform-origin: 396.668px 180.575px;" class="animable"><path d="M404.09,188.23a8.56,8.56,0,0,1-4.83,2.64l.34,3.28-2.92.3-.33-3.18a16.2,16.2,0,0,1-4.2-.33,10.33,10.33,0,0,1-3.32-1.24l1.23-3.73a11.13,11.13,0,0,0,2.74,1.1,11.94,11.94,0,0,0,3.14.37l-.51-4.87a23.6,23.6,0,0,1-3.62-.74,6.18,6.18,0,0,1-2.58-1.55,4.83,4.83,0,0,1-1.3-3,5.67,5.67,0,0,1,1.33-4.34,8.49,8.49,0,0,1,4.88-2.66L393.8,167l2.91-.3.34,3.18a12.84,12.84,0,0,1,6.11,1.16l-1.08,3.74a11.83,11.83,0,0,0-4.63-1.05l.53,5a21.48,21.48,0,0,1,3.57.7,6.19,6.19,0,0,1,2.57,1.53,4.87,4.87,0,0,1,1.29,3A5.62,5.62,0,0,1,404.09,188.23Zm-10.8-10.57a4.65,4.65,0,0,0,1.69.61l-.44-4.14a3.18,3.18,0,0,0-1.54,1,1.94,1.94,0,0,0-.39,1.39A1.53,1.53,0,0,0,393.29,177.66Zm7.06,8.44a1.76,1.76,0,0,0,.39-1.32,1.54,1.54,0,0,0-.66-1.14,4.93,4.93,0,0,0-1.65-.65l.42,4A3.24,3.24,0,0,0,400.35,186.1Z" style="fill: rgb(255, 255, 255); transform-origin: 396.668px 180.575px;" id="elezohsv97fwt" class="animable"></path></g></g><path d="M201.79,409.81a29,29,0,1,0,0-58h-5.6a29,29,0,0,0,0,58Z" style="fill: rgb(64, 123, 255); transform-origin: 198.99px 380.81px;" id="elsqvyo8bbs4n" class="animable"></path><g id="eltluvhh17pib"><g style="opacity: 0.2; transform-origin: 189.42px 381.16px;" class="animable"><path d="M211.55,390.53H168.87c.21.6.44,1.18.68,1.75h42Z" style="fill: rgb(255, 255, 255); transform-origin: 190.21px 391.405px;" id="elxxwdo7f84h9" class="animable"></path><path d="M211.55,383.7H167.33c.06.59.14,1.17.23,1.75h44Z" style="fill: rgb(255, 255, 255); transform-origin: 189.445px 384.575px;" id="el8m187jxe6hv" class="animable"></path><path d="M211.55,376.87H167.46c-.08.58-.14,1.16-.18,1.75h44.27Z" style="fill: rgb(255, 255, 255); transform-origin: 189.415px 377.745px;" id="el0hs1y8ctx92a" class="animable"></path><path d="M211.55,397.37H172.39c.42.6.85,1.18,1.32,1.75h37.84Z" style="fill: rgb(255, 255, 255); transform-origin: 191.97px 398.245px;" id="el9r2vhab9ty4" class="animable"></path><path d="M178.14,358.12h33.41v-1.75h-31A27.82,27.82,0,0,0,178.14,358.12Z" style="fill: rgb(255, 255, 255); transform-origin: 194.845px 357.245px;" id="el1lm8a5atdxn" class="animable"></path><path d="M211.55,404.2H179.06a28.16,28.16,0,0,0,2.69,1.75h29.8Z" style="fill: rgb(255, 255, 255); transform-origin: 195.305px 405.075px;" id="elhqmuqxr6x" class="animable"></path><path d="M211.55,363.2h-38.4c-.43.57-.85,1.15-1.24,1.75h39.64Z" style="fill: rgb(255, 255, 255); transform-origin: 191.73px 364.075px;" id="elq9kuqpvj3l" class="animable"></path><path d="M211.55,370H169.26c-.23.58-.44,1.16-.63,1.75h42.92Z" style="fill: rgb(255, 255, 255); transform-origin: 190.09px 370.875px;" id="el0x0smd22ea0n" class="animable"></path></g></g><circle cx="201.79" cy="380.81" r="29" style="fill: rgb(64, 123, 255); transform-origin: 201.79px 380.81px;" id="eljv57l30lbva" class="animable"></circle><g id="elmgj32feuln"><circle cx="201.79" cy="380.81" r="29" style="fill: rgb(255, 255, 255); opacity: 0.4; transform-origin: 201.79px 380.81px;" class="animable"></circle></g><g id="elqrymsa1izll"><circle cx="201.79" cy="380.81" r="23.4" style="fill: rgb(255, 255, 255); opacity: 0.2; transform-origin: 201.79px 380.81px; transform: rotate(-45deg);" class="animable"></circle></g><path d="M201.79,357.4c-.48,0-.95,0-1.42.05a23.4,23.4,0,0,1,0,46.71c.47,0,.94,0,1.42,0a23.41,23.41,0,0,0,0-46.81Z" style="fill: rgb(64, 123, 255); transform-origin: 212.543px 380.755px;" id="ela3pobv7ju54" class="animable"></path><path d="M207.32,390.12a9.53,9.53,0,0,1-5.64,2.37v3.65h-3.26v-3.56a17.75,17.75,0,0,1-4.6-.84,11.63,11.63,0,0,1-3.53-1.77l1.8-4a11.87,11.87,0,0,0,2.9,1.54,13.45,13.45,0,0,0,3.43.78v-5.45a24.33,24.33,0,0,1-3.92-1.24,6.8,6.8,0,0,1-2.67-2,5.39,5.39,0,0,1-1.08-3.51,6.3,6.3,0,0,1,2-4.65,9.48,9.48,0,0,1,5.7-2.37v-3.62h3.26V369a14.33,14.33,0,0,1,6.62,2l-1.63,4a12.92,12.92,0,0,0-5-1.69v5.54a24.6,24.6,0,0,1,3.87,1.19,6.78,6.78,0,0,1,2.65,2,5.32,5.32,0,0,1,1.08,3.48A6.15,6.15,0,0,1,207.32,390.12Zm-10.7-12.93a5.29,5.29,0,0,0,1.8.88v-4.64a3.59,3.59,0,0,0-1.83.93,2.14,2.14,0,0,0-.59,1.49A1.69,1.69,0,0,0,196.62,377.19Zm6.82,10.14a1.92,1.92,0,0,0,.59-1.4,1.69,1.69,0,0,0-.6-1.34,5.36,5.36,0,0,0-1.75-.91v4.5A3.5,3.5,0,0,0,203.44,387.33Z" style="fill: rgb(64, 123, 255); transform-origin: 199.798px 380.795px;" id="el5g9o2dffg4o" class="animable"></path><path d="M209.32,390.12a9.53,9.53,0,0,1-5.64,2.37v3.65h-3.26v-3.56a17.75,17.75,0,0,1-4.6-.84,11.63,11.63,0,0,1-3.53-1.77l1.8-4a11.87,11.87,0,0,0,2.9,1.54,13.45,13.45,0,0,0,3.43.78v-5.45a24.33,24.33,0,0,1-3.92-1.24,6.8,6.8,0,0,1-2.67-2,5.39,5.39,0,0,1-1.08-3.51,6.3,6.3,0,0,1,2-4.65,9.48,9.48,0,0,1,5.7-2.37v-3.62h3.26V369a14.33,14.33,0,0,1,6.62,2l-1.63,4a12.92,12.92,0,0,0-5-1.69v5.54a24.6,24.6,0,0,1,3.87,1.19,6.78,6.78,0,0,1,2.65,2,5.32,5.32,0,0,1,1.08,3.48A6.15,6.15,0,0,1,209.32,390.12Zm-10.7-12.93a5.29,5.29,0,0,0,1.8.88v-4.64a3.59,3.59,0,0,0-1.83.93,2.14,2.14,0,0,0-.59,1.49A1.69,1.69,0,0,0,198.62,377.19Zm6.82,10.14a1.92,1.92,0,0,0,.59-1.4,1.69,1.69,0,0,0-.6-1.34,5.36,5.36,0,0,0-1.75-.91v4.5A3.5,3.5,0,0,0,205.44,387.33Z" style="fill: rgb(64, 123, 255); transform-origin: 201.798px 380.795px;" id="elskbgnkxcqa" class="animable"></path><g id="el2itqk5sg9xk"><g style="opacity: 0.4; transform-origin: 201.798px 380.795px;" class="animable"><path d="M209.32,390.12a9.53,9.53,0,0,1-5.64,2.37v3.65h-3.26v-3.56a17.75,17.75,0,0,1-4.6-.84,11.63,11.63,0,0,1-3.53-1.77l1.8-4a11.87,11.87,0,0,0,2.9,1.54,13.45,13.45,0,0,0,3.43.78v-5.45a24.33,24.33,0,0,1-3.92-1.24,6.8,6.8,0,0,1-2.67-2,5.39,5.39,0,0,1-1.08-3.51,6.3,6.3,0,0,1,2-4.65,9.48,9.48,0,0,1,5.7-2.37v-3.62h3.26V369a14.33,14.33,0,0,1,6.62,2l-1.63,4a12.92,12.92,0,0,0-5-1.69v5.54a24.6,24.6,0,0,1,3.87,1.19,6.78,6.78,0,0,1,2.65,2,5.32,5.32,0,0,1,1.08,3.48A6.15,6.15,0,0,1,209.32,390.12Zm-10.7-12.93a5.29,5.29,0,0,0,1.8.88v-4.64a3.59,3.59,0,0,0-1.83.93,2.14,2.14,0,0,0-.59,1.49A1.69,1.69,0,0,0,198.62,377.19Zm6.82,10.14a1.92,1.92,0,0,0,.59-1.4,1.69,1.69,0,0,0-.6-1.34,5.36,5.36,0,0,0-1.75-.91v4.5A3.5,3.5,0,0,0,205.44,387.33Z" style="fill: rgb(255, 255, 255); transform-origin: 201.798px 380.795px;" id="elfpxfdif8xq" class="animable"></path></g></g></g><g id="freepik--Character--inject-313" class="animable" style="transform-origin: 356.106px 311.507px;"><path d="M357,221s-7.22-1.92-5,5.51c0,0-5.87.8-1.93,5.39,0,0-4.32,5.1,1.43,6.85,0,0-.27,7,4.16,4.67,0,0,1.15,6.12,5.93,4,0,0-1.25,7.5,3.16,4.17,0,0,3.93,4.06,6.47.07,0,0,8.28,9.59,12.87,4.34,0,0,8.93,2,5.41-4.41,0,0,5.6-2.84.26-5.42,0,0,3.44-3.95-4-4.06,0,0,3.55-3.2-3.07-4.11,0,0,3.07-2.12,0-5.53,0,0,2.94-2.23-.88-6.22,0,0,2-3.38-3.38-6.06,0,0,2-3.74-3.34-3.75,0,0,.34-4.57-6-2.63,0,0-4.68-5.63-7.7,1.22C361.47,215,355.87,213.3,357,221Z" style="fill: rgb(38, 50, 56); transform-origin: 370.29px 234.602px;" id="elpam0tsz2dd" class="animable"></path><path d="M350.78,264.59c-1.88,1.14-3.71,2.09-5.61,3.06s-3.85,1.8-5.88,2.61a35,35,0,0,1-6.63,1.95,15.31,15.31,0,0,1-2.06.22c-.36,0-.8,0-1.22,0a9.46,9.46,0,0,1-1.38-.23,13.46,13.46,0,0,1-3.87-1.73,36.61,36.61,0,0,1-5.3-4.21c-1.56-1.49-3-3-4.43-4.57a98.89,98.89,0,0,1-6.95-8.65,1.55,1.55,0,0,1,.26-2.08l1.13-1a1.55,1.55,0,0,1,2.05.05c2.59,2.43,5.25,4.85,7.91,7.15,1.51,1.3,3,2.56,4.56,3.73a32.67,32.67,0,0,0,4.56,3,6.45,6.45,0,0,0,1.74.67,7.71,7.71,0,0,0,1.4-.27,33.85,33.85,0,0,0,5-1.87c1.73-.76,3.48-1.64,5.21-2.55s3.5-1.86,5.16-2.75Z" style="fill: rgb(181, 91, 82); transform-origin: 328.972px 261.014px;" id="elqogmes0le6h" class="animable"></path><path d="M352.06,255.09c-2.75-1.63-14.29,5.86-14.29,5.86l2.94,10.13s14.87-3.31,15.59-7.4C357.05,259.41,356.07,257.47,352.06,255.09Z" style="fill: rgb(64, 123, 255); transform-origin: 347.151px 262.969px;" id="el4nankti7ixe" class="animable"></path><path d="M311.15,251.4,308.72,243l-4.32,5.88s1.94,4.18,4.92,4.35Z" style="fill: rgb(181, 91, 82); transform-origin: 307.775px 248.115px;" id="elkdy4fwvz7fq" class="animable"></path><path d="M311.88,243.25h0a1.75,1.75,0,0,0-1.72.92l-1.61,3.06L310.3,249Z" style="fill: rgb(181, 91, 82); transform-origin: 310.215px 246.121px;" id="elk1u4kuceebe" class="animable"></path><polygon points="304.97 239.19 301.85 243.68 304.4 248.86 308.72 242.98 304.97 239.19" style="fill: rgb(181, 91, 82); transform-origin: 305.285px 244.025px;" id="ellian453vzu" class="animable"></polygon><g id="elphkcyj68e5h"><rect x="298.79" y="232.64" width="9.95" height="17.55" rx="1.29" style="fill: rgb(64, 123, 255); transform-origin: 303.765px 241.415px; transform: rotate(-6deg);" class="animable"></rect></g><g id="el2kooqbe0vtg"><rect x="298.79" y="232.64" width="9.95" height="17.55" rx="1.29" style="opacity: 0.2; transform-origin: 303.765px 241.415px; transform: rotate(-6deg);" class="animable"></rect></g><g id="elgqkbcjazn0l"><rect x="299.32" y="232.59" width="9.95" height="17.55" rx="1.29" style="fill: rgb(64, 123, 255); transform-origin: 304.295px 241.365px; transform: rotate(-6deg);" class="animable"></rect></g><g id="elfmk1b9mx2g"><path d="M301.64,250.47l7.15-.75A1.38,1.38,0,0,0,310,248.2l-1.55-14.71a1.06,1.06,0,0,0-.06-.19l-8.3,15.78v.16A1.38,1.38,0,0,0,301.64,250.47Z" style="fill: rgb(255, 255, 255); opacity: 0.2; transform-origin: 305.049px 241.891px;" class="animable"></path></g><path d="M307,232.26l-7.15.75a1.38,1.38,0,0,0-1.22,1.52l1.54,14.71a1.38,1.38,0,0,0,1.52,1.23l7.15-.75A1.38,1.38,0,0,0,310,248.2l-1.55-14.71A1.38,1.38,0,0,0,307,232.26Zm2.27,16a.58.58,0,0,1-.51.63l-7.15.76a.58.58,0,0,1-.64-.52l-1.55-14.71a.58.58,0,0,1,.52-.64l1.1-.12,0,.26a.69.69,0,0,0,.75.61l3.58-.38a.68.68,0,0,0,.61-.75l0-.26,1.1-.11a.56.56,0,0,1,.63.51Z" style="fill: rgb(38, 50, 56); transform-origin: 304.315px 241.368px;" id="eldpe5aulqeut" class="animable"></path><g id="el3iu37u9kwsk"><path d="M352.24,260l-3.14-2.06-1.41,1.12a45.93,45.93,0,0,0-1,10.39,30.86,30.86,0,0,0,7.8-3.47Z" style="opacity: 0.1; transform-origin: 350.586px 263.695px;" class="animable"></path></g><polygon points="307.39 366.43 301.42 383.87 296.41 382.44 300.47 364.04 307.39 366.43" style="fill: rgb(181, 91, 82); transform-origin: 301.9px 373.955px;" id="elq7rradztzj" class="animable"></polygon><path d="M296.49,381.1l6.17,1.86a.59.59,0,0,1,.45.59l-.23,6.13a1,1,0,0,1-1,1l-.2,0c-2.56-.72-4.8-1.45-8-2.28-3.78-1-2.94-.29-7.39-1.38-2.68-.66-2.38-3.83-1.2-3.68,5.35.7,7.26-.73,9.74-2.06A2.38,2.38,0,0,1,296.49,381.1Z" style="fill: rgb(38, 50, 56); transform-origin: 293.666px 385.853px;" id="el8m4pnfarxw" class="animable"></path><g id="elkbkbkexnsij"><polygon points="304.14 375.94 298.18 374.41 300.47 364.04 307.39 366.43 304.14 375.94" style="opacity: 0.2; transform-origin: 302.785px 369.99px;" class="animable"></polygon></g><polygon points="345.85 387.81 347.84 403.24 342.23 403.39 338.17 388.5 345.85 387.81" style="fill: rgb(181, 91, 82); transform-origin: 343.005px 395.6px;" id="elgjir248kg78" class="animable"></polygon><path d="M342.15,402.53l6.41,0a.59.59,0,0,1,.58.46l1.31,6a1,1,0,0,1-.74,1.18l-.21,0c-2.65,0-5-.2-8.31-.21-3.9,0-2.92.46-7.5.51-2.76,0-3.26-3.11-2.09-3.26,5.36-.66,6.88-2.28,8.95-4.19A2.33,2.33,0,0,1,342.15,402.53Z" style="fill: rgb(38, 50, 56); transform-origin: 340.74px 406.497px;" id="eldztaqshhjm" class="animable"></path><g id="elrjj8bjukbo"><polygon points="340.52 397.13 338.17 388.5 345.85 387.81 347 396.73 340.52 397.13" style="opacity: 0.2; transform-origin: 342.585px 392.47px;" class="animable"></polygon></g><path d="M365.18,295.17h-9.06a50.43,50.43,0,0,0-2.87,12.63c-.48,6.45,11.93,1.67,11.93,1.67l1.09-8.84Z" style="fill: rgb(64, 123, 255); transform-origin: 359.753px 303.172px;" id="el3r8c0mzol8g" class="animable"></path><path d="M365.18,295.17h-9.06a50.43,50.43,0,0,0-2.87,12.63c-.48,6.45,11.93,1.67,11.93,1.67l1.09-8.84Z" style="fill: rgb(38, 50, 56); transform-origin: 359.753px 303.172px;" id="el8tn6outbfhp" class="animable"></path><g id="el00l6hkomldfvj"><path d="M359.91,295.17c2.52,13.22-2.33,12.55-2.33,12.55l2.75,1.91,5-1.22,1-7.78-1.09-5.46Z" style="opacity: 0.3; transform-origin: 361.955px 302.4px;" class="animable"></path></g><path d="M383.27,294.34s9.23,15.45,7.64,28.34-13.52,19.72-59.38-2.25c0,0-9.41,9.74-25,51.46l-8-2.39s9-48.22,17-61.94,43.79,2.39,46.5-.32c2.41-2.41.32-11.94.32-11.94Z" style="fill: rgb(38, 50, 56); transform-origin: 344.812px 333.115px;" id="elnz9gv4f7zd" class="animable"></path><g id="elzl1eccj3dmk"><path d="M326.29,324.76l-2.5-1.94s-8.84,4.78-4.44,18.41h0a158.81,158.81,0,0,1,7.8-14.59Z" style="opacity: 0.3; transform-origin: 322.636px 332.025px;" class="animable"></path></g><path d="M364.6,333.11c-8.34-2-19.13-6-33.07-12.68,0,0-10.76.14-11.48,8.15s18.15,63.33,18.15,63.33l8.72-.76s-5.13-55.17-6.33-58Z" style="fill: rgb(38, 50, 56); transform-origin: 342.315px 356.17px;" id="elj3emkaz0jck" class="animable"></path><g id="elcl374cgglmk"><path d="M331.53,320.43a17.8,17.8,0,0,0-3.69.53,77,77,0,0,0,19.45,12.15H364.6C356.26,331.12,345.47,327.11,331.53,320.43Z" style="opacity: 0.3; transform-origin: 346.22px 326.77px;" class="animable"></path></g><polygon points="347.97 389.72 348.2 393.3 338.06 394.1 336.61 390.69 347.97 389.72" style="fill: rgb(38, 50, 56); transform-origin: 342.405px 391.91px;" id="elqqoogkipvs" class="animable"></polygon><path d="M347.73,257.21c-.25,3.54.5,13.44,7,41l29.07-2.11c-1.3-11.36-1.85-18.54,1.58-41.09a2.62,2.62,0,0,0-2.33-3,81.15,81.15,0,0,0-9.72-.42,93.41,93.41,0,0,0-13.19,1c-4,.66-8.33,1.75-10.53,2.33A2.59,2.59,0,0,0,347.73,257.21Z" style="fill: rgb(64, 123, 255); transform-origin: 366.55px 274.894px;" id="elk2wrkwr4dhn" class="animable"></path><path d="M371,236.81c-.53,4.31-.79,12.15,2.38,14.76,0,0-.84,4.4-8.73,5-8.68.63-4.46-4-4.46-4,4.65-1.47,4.27-5,3.21-8.21Z" style="fill: rgb(181, 91, 82); transform-origin: 366.272px 246.719px;" id="elgzxcxdd2nxs" class="animable"></path><g id="elr0nzm6ug64"><path d="M367.9,239.87l-4.5,4.44a13.24,13.24,0,0,1,.58,2.31c1.79-.39,4.13-2.55,4.18-4.46A6.28,6.28,0,0,0,367.9,239.87Z" style="opacity: 0.2; transform-origin: 365.788px 243.245px;" class="animable"></path></g><path d="M375.85,229.64c-1.62,6.93-2.16,9.9-6.32,12.9-6.24,4.5-14.4,1-14.88-6.3-.43-6.55,2.3-16.79,9.64-18.4A9.7,9.7,0,0,1,375.85,229.64Z" style="fill: rgb(181, 91, 82); transform-origin: 365.372px 231.072px;" id="elbjzamtho6ew" class="animable"></path><path d="M359.16,219.09c-2.33,3.24,20.37,15.32,18.2,7.69S365.25,210.61,359.16,219.09Z" style="fill: rgb(38, 50, 56); transform-origin: 368.249px 222.416px;" id="elyrq2rd69nu" class="animable"></path><path d="M370.72,226.88c-.55,3.38,3.91,7.37,3.91,7.37s5.71-4.21,2.12-6.46S370.72,226.88,370.72,226.88Z" style="fill: rgb(38, 50, 56); transform-origin: 374.304px 230.367px;" id="el8nd5nfz94bn" class="animable"></path><path d="M363.9,229.59c-.1.57-.48,1-.85.92s-.6-.58-.5-1.15.48-1,.85-.91S364,229,363.9,229.59Z" style="fill: rgb(38, 50, 56); transform-origin: 363.225px 229.479px;" id="ely7h3br9jayq" class="animable"></path><path d="M357.45,228.49c-.09.57-.48,1-.85.92s-.6-.58-.5-1.15.48-1,.85-.91S357.55,227.92,357.45,228.49Z" style="fill: rgb(38, 50, 56); transform-origin: 356.775px 228.379px;" id="elmktr0mtly6d" class="animable"></path><path d="M357.11,227.41l-1.3-.63S356.33,228,357.11,227.41Z" style="fill: rgb(38, 50, 56); transform-origin: 356.46px 227.176px;" id="el7oth42ibr7t" class="animable"></path><path d="M359.73,229.86a15.41,15.41,0,0,1-2.66,3.29,2.46,2.46,0,0,0,2,.73Z" style="fill: rgb(160, 39, 36); transform-origin: 358.4px 231.876px;" id="elm71xepkjql" class="animable"></path><path d="M361.77,236.65a6.57,6.57,0,0,1-.85-.08.17.17,0,0,1-.14-.2.18.18,0,0,1,.19-.14,4.57,4.57,0,0,0,4-1.13.16.16,0,0,1,.24,0,.17.17,0,0,1,0,.24A4.79,4.79,0,0,1,361.77,236.65Z" style="fill: rgb(38, 50, 56); transform-origin: 363.018px 235.849px;" id="elz20zlsv9ya" class="animable"></path><path d="M376.65,236.39a5.19,5.19,0,0,1-3.16,2.41c-1.77.45-2.61-1.14-2.09-2.79.48-1.48,2-3.5,3.72-3.23A2.34,2.34,0,0,1,376.65,236.39Z" style="fill: rgb(181, 91, 82); transform-origin: 374.148px 235.816px;" id="elb163dxq7v5" class="animable"></path><path d="M366.71,228.72a.34.34,0,0,1-.32-.24,4,4,0,0,0-2.4-2.15.35.35,0,0,1-.22-.43.34.34,0,0,1,.43-.21,4.61,4.61,0,0,1,2.84,2.59.34.34,0,0,1-.22.43Z" style="fill: rgb(38, 50, 56); transform-origin: 365.406px 227.196px;" id="elcal1pp3kwb8" class="animable"></path><path d="M356,225.18a.35.35,0,0,1-.29-.17.34.34,0,0,1,.13-.46,3.37,3.37,0,0,1,3.1-.21.34.34,0,0,1,.14.46.33.33,0,0,1-.45.15h0a2.69,2.69,0,0,0-2.45.19A.39.39,0,0,1,356,225.18Z" style="fill: rgb(38, 50, 56); transform-origin: 357.394px 224.619px;" id="el60rhhmsuf75" class="animable"></path><path d="M363.56,228.51l-1.3-.63S362.78,229.07,363.56,228.51Z" style="fill: rgb(38, 50, 56); transform-origin: 362.91px 228.27px;" id="el5m6bsofeiqx" class="animable"></path><path d="M384.16,294.34l.93,2.55c.12.19-.11.41-.44.44l-29.91,2.17c-.27,0-.49-.09-.52-.25l-.45-2.59c0-.17.18-.34.47-.36l29.43-2.14A.51.51,0,0,1,384.16,294.34Z" style="fill: rgb(255, 255, 255); transform-origin: 369.446px 296.826px;" id="elegap0mier4v" class="animable"></path><path d="M380.45,297.92l.78-.06c.16,0,.27-.1.26-.2l-.62-3.35c0-.1-.16-.17-.32-.16l-.79.06c-.15,0-.27.1-.25.2l.62,3.35C380.15,297.86,380.29,297.93,380.45,297.92Z" style="fill: rgb(38, 50, 56); transform-origin: 380.499px 296.035px;" id="el2t6ydqnn1sb" class="animable"></path><path d="M357,299.62l.79-.05c.16,0,.27-.1.25-.2L357.4,296c0-.09-.16-.16-.32-.15l-.79.05c-.16,0-.27.11-.25.2l.61,3.36A.29.29,0,0,0,357,299.62Z" style="fill: rgb(38, 50, 56); transform-origin: 357.04px 297.741px;" id="el0ufoktx5pgtg" class="animable"></path><path d="M368.71,298.77l.79-.06c.15,0,.27-.1.25-.2l-.62-3.35c0-.1-.16-.17-.31-.16l-.79.06c-.16,0-.27.1-.26.2l.62,3.35C368.41,298.71,368.55,298.78,368.71,298.77Z" style="fill: rgb(38, 50, 56); transform-origin: 368.761px 296.885px;" id="elt2uvsjw9aa" class="animable"></path><polygon points="308.47 371.09 306.8 374.31 297.24 371.09 297.24 367.39 308.47 371.09" style="fill: rgb(38, 50, 56); transform-origin: 302.855px 370.85px;" id="elejibd4ucu39" class="animable"></polygon><g id="elrjy8n9fvhb"><path d="M383.24,256.6l-4.58,5.33s-.08,5.73,4.46,12.39c.31-4.52.92-9.9,1.93-16.81Z" style="opacity: 0.1; transform-origin: 381.855px 265.46px;" class="animable"></path></g><path d="M389.27,259.76c.7,1.61,1.5,3.4,2.31,5.08s1.62,3.4,2.51,5a74.54,74.54,0,0,0,5.78,9.37l.81,1,.33.41c.08.1.22.24.33.36a23.49,23.49,0,0,0,1.89,1.65c1.41,1.12,2.95,2.23,4.51,3.32,2.65,1.83,5.38,3.66,8.1,5.5a2.09,2.09,0,0,1,.7,2.67l-.25.51a2.1,2.1,0,0,1-2.6,1.05,99,99,0,0,1-9.31-4c-1.81-.91-3.61-1.85-5.41-3a25.57,25.57,0,0,1-2.75-1.95c-.25-.21-.48-.4-.73-.65l-.38-.37-.29-.31-1.09-1.2A61.71,61.71,0,0,1,386.6,274,83.67,83.67,0,0,1,381.24,263Z" style="fill: rgb(181, 91, 82); transform-origin: 399.001px 277.783px;" id="els0zeqkel0y" class="animable"></path><path d="M385.84,252.3c3,.68,7.21,11.45,7.21,11.45l-8.71,7.9s-6.73-8.07-5.78-11.93C379.55,255.71,382.45,251.53,385.84,252.3Z" style="fill: rgb(64, 123, 255); transform-origin: 385.759px 261.929px;" id="eligqvzhdadt" class="animable"></path><path d="M415.25,292.59l6.78-3.74L420.61,296s-4.39,1.39-6.53-.69Z" style="fill: rgb(181, 91, 82); transform-origin: 418.055px 292.652px;" id="el8x8ov3x4cq2" class="animable"></path><polygon points="427.99 289.81 426.48 295.73 420.61 296 422.04 288.85 427.99 289.81" style="fill: rgb(181, 91, 82); transform-origin: 424.3px 292.425px;" id="el1gyt5yrjkvo" class="animable"></polygon><path d="M372.5,218c-.57-1.33-4.14-2.26-6-1.76a2.5,2.5,0,0,1-1.09,0l-1.18-.26a2,2,0,0,1-1-.43c-1.36-1.19-5-1.83-6.29-.89s-1.52,4.8-.56,5.83a5.68,5.68,0,0,0,4.43,1c1.24-.44,2.89-3.13,2.95-4.7a2.63,2.63,0,0,1,.85-.1,2.13,2.13,0,0,1,.68.44c-.84,1.39-.95,4.41-.11,5.3a5.66,5.66,0,0,0,4.43,1C371.08,222.83,373.07,219.3,372.5,218Z" style="fill: rgb(64, 123, 255); transform-origin: 364.195px 218.871px;" id="elkg1zfvojiqg" class="animable"></path><g id="el6p5zgl3ilkk"><path d="M360.63,220.82A4.73,4.73,0,0,1,357,220c-.79-.85-.56-4.05.46-4.8,1.2-.89,5-.07,5.53,1.19C363.44,217.49,361.81,220.39,360.63,220.82Z" style="opacity: 0.3; transform-origin: 359.797px 217.862px;" class="animable"></path></g><g id="el4ol0y5laf6r"><path d="M369.42,222.72a4.74,4.74,0,0,1-3.65-.79c-.79-.85-.55-4.05.47-4.8,1.2-.89,5-.07,5.53,1.19C372.23,219.39,370.6,222.3,369.42,222.72Z" style="opacity: 0.3; transform-origin: 368.575px 219.782px;" class="animable"></path></g><g id="elzm7k16qt2o9"><path d="M357,220a4.73,4.73,0,0,0,3.65.79c1.18-.43,2.81-3.33,2.34-4.4l-.05-.08-6,3.6A.73.73,0,0,0,357,220Z" style="fill: rgb(255, 255, 255); opacity: 0.5; transform-origin: 360.006px 218.594px;" class="animable"></path></g><g id="el6k71fykt3og"><path d="M369.42,222.72c1.18-.42,2.81-3.32,2.35-4.39l-6,3.6A4.72,4.72,0,0,0,369.42,222.72Z" style="fill: rgb(255, 255, 255); opacity: 0.5; transform-origin: 368.81px 220.569px;" class="animable"></path></g><polygon points="380.54 411.38 377.33 411.38 376.33 347.99 381.54 347.99 380.54 411.38" style="fill: rgb(38, 50, 56); transform-origin: 378.935px 379.685px;" id="elg7ikv8cd72" class="animable"></polygon><polygon points="355.17 411.38 351.95 411.38 358.74 347.99 363.95 347.99 355.17 411.38" style="fill: rgb(38, 50, 56); transform-origin: 357.95px 379.685px;" id="el0lwzwmeo3sv" class="animable"></polygon><polygon points="402.71 411.38 405.92 411.38 399.14 347.99 393.92 347.99 402.71 411.38" style="fill: rgb(38, 50, 56); transform-origin: 399.92px 379.685px;" id="el2r6dg55dpw8" class="animable"></polygon><g id="elu5u3jr8000e"><polygon points="380.54 411.38 377.33 411.38 376.33 347.99 381.54 347.99 380.54 411.38" style="fill: rgb(255, 255, 255); opacity: 0.5; transform-origin: 378.935px 379.685px;" class="animable"></polygon></g><g id="el4rpjkjtie2a"><polygon points="355.17 411.38 351.95 411.38 358.74 347.99 363.95 347.99 355.17 411.38" style="fill: rgb(255, 255, 255); opacity: 0.5; transform-origin: 357.95px 379.685px;" class="animable"></polygon></g><g id="elt6n6ee32fm9"><polygon points="402.71 411.38 405.92 411.38 399.14 347.99 393.92 347.99 402.71 411.38" style="fill: rgb(255, 255, 255); opacity: 0.5; transform-origin: 399.92px 379.685px;" class="animable"></polygon></g><g id="ellbze2sw8anj"><polygon points="395.25 357.56 400.16 357.56 399.63 352.56 394.56 352.56 395.25 357.56" style="opacity: 0.2; transform-origin: 397.36px 355.06px;" class="animable"></polygon></g><g id="el138nmtiafrx"><polygon points="381.39 357.56 381.47 352.56 376.4 352.56 376.48 357.56 381.39 357.56" style="opacity: 0.2; transform-origin: 378.935px 355.06px;" class="animable"></polygon></g><g id="elwjqtnz9dsge"><polygon points="357.71 357.56 362.63 357.56 363.32 352.56 358.25 352.56 357.71 357.56" style="opacity: 0.2; transform-origin: 360.515px 355.06px;" class="animable"></polygon></g><rect x="357.73" y="347.72" width="42.41" height="5.75" style="fill: rgb(64, 123, 255); transform-origin: 378.935px 350.595px;" id="elybhfrbf3st" class="animable"></rect><g id="elx5if6muhhc"><rect x="357.73" y="347.72" width="42.41" height="5.75" style="opacity: 0.3; transform-origin: 378.935px 350.595px;" class="animable"></rect></g><rect x="352.67" y="333.1" width="52.53" height="15.83" rx="5.18" style="fill: rgb(64, 123, 255); transform-origin: 378.935px 341.015px;" id="elmqzlvyzuccr" class="animable"></rect><g id="elc9kja1fnb95"><rect x="352.67" y="333.1" width="52.53" height="15.83" rx="5.18" style="opacity: 0.3; transform-origin: 378.935px 341.015px;" class="animable"></rect></g><g id="elqsateh0y81"><path d="M404.53,346.26a9.34,9.34,0,0,0-4-.89H357.3a9.38,9.38,0,0,0-4,.89,5.16,5.16,0,0,0,4.51,2.67H400A5.14,5.14,0,0,0,404.53,346.26Z" style="opacity: 0.2; transform-origin: 378.915px 347.15px;" class="animable"></path></g></g><defs>     <filter id="active" height="200%">         <feMorphology in="SourceAlpha" result="DILATED" operator="dilate" radius="2"></feMorphology>                <feFlood flood-color="#32DFEC" flood-opacity="1" result="PINK"></feFlood>        <feComposite in="PINK" in2="DILATED" operator="in" result="OUTLINE"></feComposite>        <feMerge>            <feMergeNode in="OUTLINE"></feMergeNode>            <feMergeNode in="SourceGraphic"></feMergeNode>        </feMerge>    </filter>    <filter id="hover" height="200%">        <feMorphology in="SourceAlpha" result="DILATED" operator="dilate" radius="2"></feMorphology>                <feFlood flood-color="#ff0000" flood-opacity="0.5" result="PINK"></feFlood>        <feComposite in="PINK" in2="DILATED" operator="in" result="OUTLINE"></feComposite>        <feMerge>            <feMergeNode in="OUTLINE"></feMergeNode>            <feMergeNode in="SourceGraphic"></feMergeNode>        </feMerge>            <feColorMatrix type="matrix" values="0   0   0   0   0                0   1   0   0   0                0   0   0   0   0                0   0   0   1   0 "></feColorMatrix>    </filter></defs></svg>